
nColumns=19
nRows=40
DataType=double
version=3
OpenSimVersion=4.4-2022-10-11-798caa840
endheader
time	ground_force_calcn_r_vx	ground_force_calcn_r_vy	ground_force_calcn_r_vz	ground_force_calcn_r_px	ground_force_calcn_r_py	ground_force_calcn_r_pz	ground_force_calcn_r_mx	ground_force_calcn_r_my	ground_force_calcn_r_mz	ground_force_calcn_l_vx	ground_force_calcn_l_vy	ground_force_calcn_l_vz	ground_force_calcn_l_px	ground_force_calcn_l_py	ground_force_calcn_l_pz	ground_force_calcn_l_mx	ground_force_calcn_l_my	ground_force_calcn_l_mz
3.155	0.0428248	-0.0280063	-0.00381196	1.30079	0	-0.454631	-1.18453e-17	7.74649e-18	1.05438e-18	-72.1001	648.74	53.6611	1.80873	0	-0.603417	0.0371628	-0.334382	-0.0276587
3.16	0.0237107	-0.0143688	-0.00194571	1.31161	0	-0.455485	-5.17317e-17	3.13495e-17	4.24512e-18	-69.8707	650.103	53.8946	1.809	0	-0.603983	0.0367826	-0.342239	-0.0283722
3.165	-0.00109961	0.000625688	8.61829e-05	1.32351	0	-0.456399	-3.9683e-16	2.258e-16	3.1102e-17	-67.7002	650.088	53.9695	1.80937	0	-0.60444	0.0331942	-0.318746	-0.0264619
3.17	-0.0306361	0.0164337	0.00230848	1.33644	0	-0.457364	-2.93994e-15	1.57704e-15	2.21529e-16	-65.6053	648.753	53.9261	1.80985	0	-0.60479	0.0284716	-0.281547	-0.023403
3.175	-0.0384221	0.0195129	0.00277296	1.35037	0	-0.458366	-1.98727e-14	1.00925e-14	1.43423e-15	-63.5661	646.083	53.7001	1.81043	0	-0.6050450000000001	0.0228655	-0.232404	-0.0193166
3.18	-0.0343907	0.0166368	0.00238673	1.36516	0	-0.459399	-2.96307e-14	1.43341e-14	2.05638e-15	-61.5545	642.09	53.3937	1.81108	0	-0.605216	0.0162128	-0.16912	-0.0140633
3.185	-0.0282263	0.0130831	0.00189983	1.38068	0	-0.46046	1.61257e-13	-7.47439e-14	-1.08538e-14	-59.5476	636.904	53.0084	1.8118	0	-0.605317	0.008134479999999999	-0.087004	-0.0072412
3.19	-0.0223704	0.009975019999999999	0.00146704	1.39685	0	-0.461543	1.13409e-13	-5.05693e-14	-7.437320000000001e-15	-57.5188	630.638	52.6019	1.81257	0	-0.605355	-0.00104379	0.0114442	0.000954567
3.195	-0.0180767	0.0077862	0.0011588	1.41356	0	-0.462643	5.55101e-14	-2.39099e-14	-3.55846e-15	-55.4609	623.49	52.1944	1.81338	0	-0.605336	-0.0108141	0.121572	0.0101772
3.2	-0.0152068	0.00635067	0.000955163	1.43071	0	-0.463754	1.84883e-14	-7.72111e-15	-1.16128e-15	-53.4043	615.671	51.8269	1.81423	0	-0.605262	-0.0205275	0.236651	0.0199212
3.205	-0.0135537	0.0055069	0.000835988	1.44824	0	-0.464872	-4.02382e-15	1.63489e-15	2.48188e-16	-51.3587	607.427	51.4572	1.8151	0	-0.605135	-0.029809	0.352555	0.0298661
3.21	-0.0128488	0.00509301	0.000778915	1.46607	0	-0.46599	-2.08057e-14	8.24695e-15	1.26127e-15	-49.3484	598.979	51.0868	1.81598	0	-0.604953	-0.0382521	0.464295	0.0395996
3.215	-0.0130374	0.00505489	0.00077712	1.48414	0	-0.467106	-3.69128e-14	1.4312e-14	2.20027e-15	-47.366	590.494	50.6312	1.81687	0	-0.6047169999999999	-0.0456003	0.568481	0.0487437
3.22	-0.0141332	0.00537172	0.000826453	1.50243	0	-0.468209	-5.79075e-14	2.20093e-14	3.38619e-15	-45.3982	582.0890000000001	50.0743	1.81776	0	-0.604424	-0.0517499	0.663528	0.0570801
3.225	-0.0163549	0.00610562	0.000934078	1.52089	0	-0.469292	-8.99786e-14	3.35909e-14	5.13895e-15	-43.4325	573.8680000000001	49.3603	1.81865	0	-0.604078	-0.056857	0.751244	0.06461699999999999
3.23	-0.0200901	0.00737847	0.00111423	1.53951	0	-0.470346	-1.45067e-13	5.32786e-14	8.045690000000001e-15	-41.4434	565.908	48.5099	1.81953	0	-0.603683	-0.0609109	0.831736	0.07129679999999999
3.235	-0.0260755	0.00943533	0.00139557	1.55826	0	-0.471363	-2.44966e-13	8.86403e-14	1.31107e-14	-39.4249	558.263	47.5302	1.82039	0	-0.603243	-0.0638306	0.903853	0.0769536
3.24	-0.0354776	0.0126626	0.00181939	1.57716	0	-0.472339	-4.36691e-13	1.55863e-13	2.23947e-14	-37.3758	550.968	46.4727	1.82123	0	-0.602766	-0.0654906	0.9654160000000001	0.0814304
3.245	-0.0502473	0.0177085	0.00245068	1.5962	0	-0.473267	-8.18102e-13	2.88321e-13	3.99008e-14	-35.3074	544.066	45.3981	1.82205	0	-0.602256	-0.0657456	1.0131	0.0845355
3.25	-0.0734327	0.025575	0.00337822	1.61538	0	-0.474143	-1.60792e-12	5.60003e-13	7.39711e-14	-33.2346	537.567	44.349	1.82283	0	-0.6017169999999999	-0.0645343	1.04384	0.086116
3.255	-0.109866	0.037842	0.00472576	1.63472	0	-0.474964	-3.28803e-12	1.13252e-12	1.41431e-13	-31.1857	531.486	43.3552	1.8236	0	-0.601152	-0.0619112	1.05513	0.0860706
3.26	-0.166731	0.0568293	0.00664236	1.65423	0	-0.475727	-6.95494e-12	2.37054e-12	2.77075e-13	-29.1992	525.8390000000001	42.4334	1.82433	0	-0.600559	-0.0580902	1.04613	0.08441890000000001
3.265	-0.25451	0.0858927	0.009297339999999999	1.67392	0	-0.47643	-1.50686e-11	5.08538e-12	5.5046e-13	-27.3095	520.604	41.5425	1.82503	0	-0.599939	-0.0533148	1.01635	0.0811013
3.27	-0.387238	0.129462	0.0128282	1.69381	0	-0.477072	-3.32065e-11	1.11017e-11	1.10004e-12	-25.5475	515.76	40.6728	1.82571	0	-0.599292	-0.0477948	0.964896	0.0760916
3.275	-0.582628	0.193063	0.0172857	1.71391	0	-0.477652	-7.36983e-11	2.44211e-11	2.18651e-12	-23.9284	511.292	39.7576	1.82637	0	-0.598622	-0.0417907	0.892967	0.0694364
3.28	-0.860076	0.282613	0.0225172	1.73425	0	-0.478168	-1.63532e-10	5.37351e-11	4.28133e-12	-22.4588	507.176	38.7989	1.82699	0	-0.597934	-0.0355413	0.802612	0.0613996
3.285	-1.23779	0.403522	0.0280871	1.75482	0	-0.47862	-3.59654e-10	1.17248e-10	8.16104e-12	-21.1129	503.444	37.7659	1.82759	0	-0.597237	-0.0292771	0.698121	0.0523696
3.29	-1.72852	0.559311	0.0332068	1.77564	0	-0.479006	-7.80206e-10	2.52457e-10	1.49886e-11	-19.8816	500.113	36.6897	1.82816	0	-0.596539	-0.0232379	0.584539	0.0428834
3.295	-2.33496	0.750256	0.0367556	1.79672	0	-0.479326	-1.66041e-09	5.33512e-10	2.61372e-11	-18.7226	497.208	35.5885	1.8287	0	-0.595848	-0.0174938	0.464574	0.0332527
3.3	-3.04312	0.971437	0.0373853	1.81806	0	-0.479579	-3.45235e-09	1.10207e-09	4.24129e-11	-17.5963	494.737	34.4946	1.82922	0	-0.595177	-0.01201	0.337671	0.0235435
3.305	-3.82126	1.21261	0.0337968	1.83966	0	-0.479761	-6.97866e-09	2.21456e-09	6.17221e-11	-16.4762	492.683	33.4895	1.82971	0	-0.5945319999999999	-0.00677922	0.202717	0.0137794
3.31	-4.62702	1.4605	0.0249947	1.86151	0	-0.479873	-1.36874e-08	4.32036e-09	7.39378e-11	-15.3385	491.013	32.5787	1.83017	0	-0.593911	-0.0019419	0.0621637	0.00412455
3.315	-5.41471	1.70111	0.01048	1.88359	0	-0.479911	-2.60184e-08	8.17406e-09	5.03578e-11	-14.2079	489.757	31.7891	1.83061	0	-0.593317	0.00249625	-0.0860474	-0.00558515
3.32	-6.14858	1.92387	-0.00996739	1.90588	0	-0.479873	-4.80682e-08	1.50404e-08	-7.79228e-11	-13.0969	488.947	31.1804	1.83103	0	-0.592757	0.00677152	-0.252801	-0.0161212
3.325	-6.80834	2.12321	-0.036218	1.92836	0	-0.479753	-8.652750000000001e-08	2.6984e-08	-4.60296e-10	-11.9841	488.586	30.7284	1.83144	0	-0.592238	0.0108376	-0.441845	-0.0277887
3.33	-7.37853	2.29506	-0.06767720000000001	1.951	0	-0.479547	-1.52e-07	4.72791e-08	-1.39417e-09	-10.8688	488.672	30.4187	1.83184	0	-0.591764	0.0144137	-0.648055	-0.04034
3.335	-7.85299	2.43828	-0.103564	1.97376	0	-0.47925	-2.60571e-07	8.09048e-08	-3.43637e-09	-9.74762	489.158	30.2515	1.83223	0	-0.591334	0.0171883	-0.862548	-0.0533434
3.34	-8.21217	2.54741	-0.142365	1.99662	0	-0.478857	-4.35222e-07	1.35005e-07	-7.54495e-09	-8.65076	490.029	30.1609	1.83261	0	-0.590936	0.0188849	-1.06975	-0.06584230000000001
3.345	-8.43465	2.61634	-0.18207	2.01954	0	-0.478366	-7.06219e-07	2.19062e-07	-1.52444e-08	-7.55361	491.384	30.1269	1.83299	0	-0.590561	0.0193841	-1.26099	-0.0773117
3.35	-8.475860000000001	2.63148	-0.219733	2.04252	0	-0.477772	-1.10846e-06	3.4414e-07	-2.87363e-08	-6.41122	493.27	30.1251	1.83336	0	-0.5901999999999999	0.0187026	-1.43895	-0.08788
